<?xml version="1.0" encoding="UTF-8"?>
<svg id="Layer_1" xmlns="http://www.w3.org/2000/svg" version="1.1" viewBox="0 0 1051.72 303.45">
  <!-- Generator: Adobe Illustrator 29.7.1, SVG Export Plug-In . SVG Version: 2.1.1 Build 8)  -->
  <defs>
    <style>
      .st0 {
        fill: #fff;
      }
    </style>
  </defs>
  <g>
    <path class="st0" d="M639.53,37.32c9.44-1.21,19.37,1.38,26.82,7.36,6.75,5.19,11.49,12.88,13.1,21.24,2.26,10.03-.41,20.82-6.45,29.05-5.45,7.36-13.75,12.54-22.74,14.25-9.67,1.76-19.97-.87-27.68-6.93-9.17-6.65-14.52-17.93-14.41-29.19.17-8.86,3.32-17.79,9.4-24.34,5.76-6.11,13.55-10.46,21.95-11.44Z"/>
    <path class="st0" d="M556.44,74.5c1.48-3.49,5.39-5.76,9.16-5.2,5.24.69,10.43,1.76,15.6,2.84,2.58.64,5.67,1.39,6.88,4.06,1.91,4.23-.33,8.73-1.02,12.98-.71,2.8-.97,6.78-4.3,7.71-2.84,1.11-7.23.6-8.2,4.26-2.6,10.13-6.59,19.88-8.99,30.08,11.33-1.94,22.53-4.66,33.48-8.12,8.23-2.65,16.14-6.22,24.39-8.79,2.26-.76,4.61-.01,6.76.75,8.19,3.07,17.36,3.22,25.74.84,2.86-.78,5.69-2.58,8.76-1.76,3.65,1.01,7.13,2.53,10.7,3.81,15.44,5.92,31.44,10.46,47.78,13.11-.43-3.26-1.84-6.27-2.76-9.4-2.08-6.94-4.78-13.69-6.28-20.79-1.63-3.42-6.11-2.79-9.06-4.18-2.76-1.49-2.98-4.94-3.62-7.65-.58-3.55-1.98-7.05-1.49-10.7.32-2.59,2.34-4.92,4.94-5.44,6.33-1.55,12.81-2.47,19.25-3.44,3.41-.57,6.71,1.67,8.15,4.67,9.11,21.43,16.31,43.66,21.62,66.33,1.16,4.83.61,10.13-1.94,14.43-2.57,4.5-7.4,7.9-12.69,7.94-16.31-1.88-32.42-5.17-48.45-8.71-5.59,36.52-11.13,73.06-16.8,109.57-.21,3.24-3.15,6.17-6.46,5.99-15.81-.05-31.63.02-47.43-.05-3.13.13-5.76-2.73-6.04-5.72-4.61-31.58-9.15-63.17-13.98-94.72-.8-5.03-1.3-10.12-2.32-15.12-14.1,3.36-28.36,6.02-42.72,8.03-2.77.46-5.65,1.09-8.42.27-5.63-1.3-9.71-6.32-11.34-11.66-1.41-4.43-.61-9.13.41-13.54,5.03-21.46,12.42-42.29,20.68-62.7Z"/>
  </g>
  <g>
    <path class="st0" d="M823.67,37.4c2.9-.71,6.48-.45,8.44,2.1,2.13,2.79,2.94,6.3,4.26,9.5.97,2.97,2.67,6.11,1.69,9.31-1.16,2.05-3.53,3.05-4.71,5.09-1.03,1.95-1.13,4.3-.49,6.4,3.82,13.02,8.07,25.92,12.33,38.81.23.63.59,1.18,1.05,1.66,6.01,6.49,12.54,12.48,18.93,18.58,9.27,8.56,19.64,15.82,28.9,24.39,4.88,4.93,10.97,8.84,17.79,10.37,9.52,2.3,20.25.63,28.01-5.55,13.08-10.8,26.38-21.35,38.79-32.92,4.97-4.9,9.99-9.75,14.92-14.69,1.37-1.22,1.66-3.12,2.28-4.76,3.19-10.29,6.59-20.51,9.52-30.88.86-3.19,2.49-6.5,1.38-9.83-.71-3.44-5.26-4.49-5.38-8.21.18-3.8,2.09-7.25,3.33-10.79,1.36-3,2.3-6.82,5.59-8.27,2.9-1.4,6.28-.7,9.04.73,4.15,2.11,8.17,4.5,12.05,7.08,1.91,1.36,4.13,2.74,4.82,5.14,1.28,3.37.29,6.97-.46,10.34-3.33,15.1-7.09,30.13-11.7,44.89-1.98,6.24-3.9,12.52-6.65,18.48-2.09,4.65-6.03,8-9.69,11.4-8.34,8.12-16.74,16.18-24.77,24.59-4.09,4.26-8.17,8.61-11.44,13.54-4.77,7.19-6.59,15.77-8.38,24.07-3.97,22.21-7.3,44.54-11.44,66.71-.3,1.4-.47,2.84-1.1,4.15-.59.92-1.86.67-2.79.79-19.31-.03-38.63.07-57.94.07-.93.14-2.03-.27-2.13-1.33-3.92-21.18-7.18-42.46-10.25-63.77-1.41-7.96-3.11-15.91-5.86-23.52-1.57-4.44-4.28-8.34-7.27-11.92-11.05-13.04-23.86-24.4-35.96-36.43-3.47-3.32-6.01-7.48-7.65-11.98-7.57-20.27-12.62-41.37-17.08-62.52-.86-3.66-.76-8.3,2.62-10.69,5.39-3.98,11.12-7.69,17.39-10.12Z"/>
    <path class="st0" d="M913.18,75.63c9.75-1.76,20.28.53,28.15,6.64,7.7,5.77,12.31,15,13.2,24.49,1.07,11.33-.87,23.37-7.42,32.89-4.34,6.59-10.48,12.11-17.83,15.1-6.79,2.74-14.74,2.42-21.26-.92-9.9-4.97-17.2-14.31-20.79-24.68-3.59-10.62-3.7-22.57.48-33.03,4.26-10.58,14.23-18.55,25.47-20.49Z"/>
  </g>
  <g>
    <path class="st0" d="M406.37,41.02c4.38-2.48,10.41-.95,13.15,3.25,15.52,21.49,30.49,43.39,44.87,65.67,1.65,2.82,3.8,5.45,4.6,8.68.9,5.53-.52,11.45-3.97,15.89-2.57,3.22-6.26,5.22-9.57,7.55-13.73,8.93-27.84,17.35-42.57,24.51-6.23,2.59-9.89,8.8-12.17,14.84-3.15,8.34-3.23,17.37-4.55,26.08-2.4,18.62-5.15,37.2-8.62,55.65-.54,3.54-3.73,6.93-7.51,6.52-16.91-.18-33.81.14-50.71-.07-3.64-.11-6.17-3.53-6.67-6.88-3.51-17.87-6.25-35.87-8.75-53.9-1.45-9.05-1.41-18.48-4.8-27.13-1.82-4.58-4.57-8.88-8.38-12.06-2.61-2.22-5.88-3.36-8.84-5.01-14.74-7.92-29.12-16.58-42.72-26.34-4.36-3.06-7.17-8.03-7.86-13.27-.64-3.71-.29-7.73,1.92-10.88,13.76-22.19,28.57-43.72,43.5-65.12,2.58-3.54,5.11-7.9,9.81-8.74,4.44-1.17,8.27,1.89,12.02,3.72,3.92,2.13,7.88,4.28,11.42,7.01,2.98,2.44,4.17,7.01,2.22,10.44-1.49,2.67-3.14,5.24-4.6,7.93-1.16,1.88-2.22,4.03-4.16,5.23-3.55,1.3-7.82-1.33-11.01,1.29-1.76,1.88-2.62,4.38-3.99,6.53-7.75,12.48-16.61,24.26-24.21,36.81,4.57,3.38,9.48,6.28,14.37,9.19,6.63,3.72,13.35,7.43,20.56,9.9,9.43,2.84,19.06,5,28.38,8.2,5.86,1.95,11.92,3.82,18.18,3.59,5.59.08,11.02-1.52,16.25-3.31,10.07-3.21,20.35-5.81,30.32-9.35,11.82-4.8,22.82-11.4,33.54-18.26-4.9-7.51-10.04-14.86-14.93-22.36-3.98-6.1-8.4-11.94-11.83-18.39-1.3-2.36-3.77-4.48-6.63-4.05-2.52.12-5.58,1.13-7.65-.82-2.28-2.47-3.6-5.63-5.33-8.48-1.43-2.59-3.4-5.23-3.12-8.34.24-2.7,1.79-5.27,4.11-6.69,5.09-3.4,10.55-6.19,15.94-9.06Z"/>
    <path class="st0" d="M349.97,68.16c16.58-2.66,34.02,7.88,39.77,23.59,3.36,9.23,2.96,19.81-1.38,28.65-4,8.88-11.82,15.84-20.98,19.06-7.62,2.87-16.22,2.73-23.86.02-10.17-3.5-18.7-11.69-22.41-21.81-3.44-8.84-3.09-19.01.57-27.73,4.81-11.48,15.89-20.18,28.28-21.78Z"/>
  </g>
  <g>
    <path class="st0" d="M67.61,36.19c3.04-2.96,8.5-3.44,11.59-.31,5.27,5.05,10.09,10.56,14.75,16.18,2.74,2.99,2.61,8.03-.17,10.94-2.22,2.39-4.72,4.51-6.88,6.96-1.66,1.77-3.39,4.05-6.07,4.01-3.99.44-6.59-3.78-10.52-3.65-2.31-.04-3.86,1.89-5.33,3.38-7.35,7.73-14.66,15.52-21.43,23.76.27.93.63,1.85,1.09,2.72,8.63,16.34,14.9,33.8,23.36,50.22,6.12,1.66,11.65,4.86,17.66,6.84,9.1,3.28,19.25,3.98,28.59,1.19,4.9-1.28,9.49-3.42,14.1-5.45,2.53-1.17,5.38-1.51,7.84-2.79,1.92-3.07,3.17-6.51,4.67-9.79,5.99-13.62,11.51-27.49,18.75-40.51.4-.78.71-1.59,1.06-2.38-6.56-8.38-14.08-15.94-21.29-23.74-1.49-1.45-2.98-3.42-5.26-3.44-3.72-.17-6.11,3.76-9.85,3.65-3.61.19-5.77-3.09-8.02-5.35-2.25-2.55-5.03-4.66-6.92-7.51-1.67-2.88-1.01-6.63,1.13-9.08,3.54-4.32,7.38-8.4,11.14-12.54,2.44-2.38,4.84-5.64,8.6-5.63,2.82-.44,5.41,1,7.34,2.92,18.14,16.54,34.6,34.81,50.54,53.44,3.56,4.94,0,10.87-2.13,15.62-7.09,15.16-13.94,30.44-20.64,45.78-4.67,11.27-9.76,22.42-13.19,34.15-3.92,14.26-6.4,28.85-9.19,43.36-2.59,13.46-5.03,26.95-7.96,40.35-.91.11-1.83.23-2.74.24-18.88-.07-37.76-.01-56.64,0-2.31-.05-4.62.11-6.92-.18-1.53-5.4-2.33-10.98-3.44-16.48-3.11-15.62-5.74-31.34-8.94-46.94-1.68-8.51-3.44-17.03-6.23-25.26-3.76-11.04-8.48-21.71-12.97-32.45-6.27-14.69-12.58-29.38-19.22-43.91-1.6-3.59-3.78-7.5-2.62-11.54.62-2.69,2.95-4.4,4.63-6.42,8.09-9.45,16.28-18.82,24.85-27.83,7.43-7.71,14.79-15.51,22.91-22.51Z"/>
    <path class="st0" d="M94.23,80.11c10.06-2.09,21.04.01,29.35,6.15,8.35,5.84,13.73,15.54,14.66,25.64.46,6.2-.42,12.56-2.97,18.25-3.81,8.6-10.98,15.73-19.8,19.14-8.45,3.55-18.27,3.55-26.81.27-9.61-3.63-17.43-11.67-20.79-21.38-3.52-10.11-2.65-21.81,2.72-31.11,4.91-8.75,13.83-15.02,23.65-16.95Z"/>
  </g>
</svg>