<?xml version="1.0" encoding="UTF-8"?>
<svg id="Layer_1" xmlns="http://www.w3.org/2000/svg" version="1.1" viewBox="0 0 1051.72 303.45">
  <!-- Generator: Adobe Illustrator 29.7.1, SVG Export Plug-In . SVG Version: 2.1.1 Build 8)  -->
  <defs>
    <style>
      .st0 {
        fill: #fff;
      }
    </style>
  </defs>
  <path class="st0" d="M317.33,78.78h39.31v5.59h-33.18v18.57h29.68v5.59h-29.68v19.04h33.57v5.59h-39.7v-54.39Z"/>
  <path class="st0" d="M383.99,108.69l11.97-15.7h6.68l-15.23,19.66,15.85,20.51h-6.92l-12.43-16.55-12.51,16.55h-6.68l15.7-20.43-15.07-19.74h6.84l11.81,15.7Z"/>
  <path class="st0" d="M412.97,92.99h5.98v8.08c3.34-4.74,7.92-8.94,15.38-8.94,9.63,0,19.19,7.61,19.19,20.82v.16c0,13.05-9.48,20.9-19.19,20.9-7.46,0-12.28-3.96-15.38-8.55v20.12h-5.98v-52.6ZM447.39,113.2v-.16c0-9.56-6.45-15.54-14.14-15.54s-14.53,6.37-14.53,15.46v.16c0,9.32,7.07,15.54,14.53,15.54s14.14-5.75,14.14-15.46Z"/>
  <path class="st0" d="M462.07,113.2v-.16c0-11.58,8.08-20.9,19.27-20.9,11.89,0,18.72,9.48,18.72,21.21,0,.85,0,1.24-.08,1.94h-31.86c.85,8.7,6.99,13.6,14.14,13.6,5.59,0,9.32-2.25,12.66-5.67l3.73,3.34c-4.04,4.58-8.86,7.54-16.55,7.54-10.96,0-20.05-8.47-20.05-20.9ZM494.01,110.87c-.62-7.23-4.74-13.67-12.82-13.67-7.07,0-12.2,5.91-13.05,13.67h25.87Z"/>
  <path class="st0" d="M510.55,92.99h5.98v10.49c2.95-6.68,8.78-11.42,16.39-11.19v6.45h-.47c-8.78,0-15.93,6.29-15.93,18.41v16.01h-5.98v-40.17Z"/>
  <path class="st0" d="M542.18,77.61h6.84v6.6h-6.84v-6.6ZM542.56,92.99h5.98v40.17h-5.98v-40.17Z"/>
  <path class="st0" d="M559.97,113.2v-.16c0-11.58,8.08-20.9,19.27-20.9,11.89,0,18.72,9.48,18.72,21.21,0,.85,0,1.24-.08,1.94h-31.86c.85,8.7,6.99,13.6,14.14,13.6,5.59,0,9.32-2.25,12.66-5.67l3.73,3.34c-4.04,4.58-8.86,7.54-16.55,7.54-10.96,0-20.05-8.47-20.05-20.9ZM591.9,110.87c-.62-7.23-4.74-13.67-12.82-13.67-7.07,0-12.2,5.91-13.05,13.67h25.87Z"/>
  <path class="st0" d="M608.45,92.99h5.98v6.99c2.72-4.35,6.84-7.85,13.75-7.85,9.63,0,15.38,6.53,15.38,16.08v24.94h-5.98v-23.46c0-7.46-3.96-12.12-11.11-12.12s-12.04,5.05-12.04,12.59v23h-5.98v-40.17Z"/>
  <path class="st0" d="M653.82,113.27v-.16c0-11.42,8.78-20.98,20.59-20.98,7.62,0,12.28,3.11,16.08,7.15l-3.96,4.2c-3.19-3.34-6.68-6.06-12.2-6.06-8.16,0-14.37,6.84-14.37,15.54v.16c0,8.7,6.37,15.62,14.76,15.62,5.21,0,9.09-2.56,12.28-5.98l3.81,3.57c-4.04,4.58-8.86,7.77-16.39,7.77-11.81,0-20.59-9.56-20.59-20.82Z"/>
  <path class="st0" d="M697.02,113.2v-.16c0-11.58,8.08-20.9,19.27-20.9,11.89,0,18.72,9.48,18.72,21.21,0,.85,0,1.24-.08,1.94h-31.86c.85,8.7,6.99,13.6,14.14,13.6,5.59,0,9.32-2.25,12.66-5.67l3.73,3.34c-4.04,4.58-8.86,7.54-16.55,7.54-10.96,0-20.05-8.47-20.05-20.9ZM728.95,110.87c-.62-7.23-4.74-13.67-12.82-13.67-7.07,0-12.2,5.91-13.05,13.67h25.87Z"/>
  <path class="st0" d="M142.1,158.78h22.22c12.98,0,20.82,7.61,20.82,18.8v.16c0,12.66-9.79,19.11-21.99,19.11h-9.09v16.32h-11.97v-54.39ZM163.54,186.21c5.98,0,9.48-3.57,9.48-8.24v-.16c0-5.36-3.73-8.24-9.71-8.24h-9.25v16.63h9.48Z"/>
  <path class="st0" d="M190.34,192.58v-.16c0-11.97,9.63-21.68,22.61-21.68s22.46,9.48,22.46,21.52v.16c0,11.96-9.63,21.68-22.61,21.68s-22.45-9.48-22.45-21.52ZM223.75,192.58v-.16c0-6.14-4.43-11.5-10.96-11.5s-10.8,5.13-10.8,11.34v.16c0,6.14,4.43,11.5,10.96,11.5s10.8-5.13,10.8-11.34Z"/>
  <path class="st0" d="M238.59,171.53h11.97l6.68,25.25,7.85-25.41h10.18l7.92,25.49,6.84-25.33h11.73l-12.98,41.96h-10.64l-8-25.56-8.16,25.56h-10.57l-12.82-41.96Z"/>
  <path class="st0" d="M304.94,192.58v-.16c0-11.89,8.47-21.68,20.59-21.68,13.91,0,20.28,10.8,20.28,22.61,0,.93-.08,1.94-.16,3.11h-28.98c1.17,5.36,4.89,8.16,10.18,8.16,3.96,0,6.76-1.24,10.1-4.27l6.76,5.98c-3.96,4.9-9.48,7.77-17.02,7.77-12.51,0-21.75-8.78-21.75-21.52ZM334.31,189.09c-.7-5.28-3.81-8.86-8.78-8.86s-8.08,3.5-9.01,8.86h17.79Z"/>
  <path class="st0" d="M354.59,171.53h11.81v8.39c2.41-5.67,6.22-9.48,13.29-9.17v12.35h-.62c-7.85,0-12.66,4.66-12.66,14.69v15.38h-11.81v-41.65Z"/>
  <path class="st0" d="M383.88,192.58v-.16c0-11.89,8.47-21.68,20.59-21.68,13.91,0,20.28,10.8,20.28,22.61,0,.93-.08,1.94-.16,3.11h-28.98c1.17,5.36,4.89,8.16,10.18,8.16,3.96,0,6.76-1.24,10.1-4.27l6.76,5.98c-3.96,4.9-9.48,7.77-17.02,7.77-12.51,0-21.75-8.78-21.75-21.52ZM413.25,189.09c-.7-5.28-3.81-8.86-8.78-8.86s-8.08,3.5-9.01,8.86h17.79Z"/>
  <path class="st0" d="M431.66,192.43v-.16c0-13.91,9.09-21.52,18.96-21.52,6.29,0,10.18,2.88,12.98,6.22v-20.51h11.81v56.72h-11.81v-5.98c-2.88,3.96-6.76,6.76-12.98,6.76-9.71,0-18.96-7.62-18.96-21.52ZM463.75,192.43v-.16c0-6.92-4.58-11.5-10.1-11.5s-10.18,4.51-10.18,11.5v.16c0,6.92,4.66,11.5,10.18,11.5s10.1-4.58,10.1-11.5Z"/>
  <path class="st0" d="M521.09,207.73v5.44h-11.81v-56.72h11.81v21.06c2.88-3.96,6.76-6.76,12.98-6.76,9.71,0,18.96,7.61,18.96,21.52v.16c0,13.91-9.09,21.52-18.96,21.52-6.29,0-10.18-2.88-12.98-6.22ZM541.21,192.43v-.16c0-6.92-4.66-11.5-10.18-11.5s-10.1,4.58-10.1,11.5v.16c0,6.92,4.58,11.5,10.1,11.5s10.18-4.51,10.18-11.5Z"/>
  <path class="st0" d="M587.12,171.53h12.28l-16.01,42.66c-3.11,8.47-6.68,11.66-13.67,11.66-4.35,0-7.46-1.09-10.49-2.88l3.96-8.55c1.55.93,3.5,1.63,5.05,1.63,2.1,0,3.11-.62,4.12-2.72l-16.32-41.8h12.51l9.48,28.36,9.09-28.36Z"/>
  <path class="st0" d="M630.94,158.78h11.97v43.51h27.12v10.88h-39.08v-54.39Z"/>
  <path class="st0" d="M674.99,192.58v-.16c0-11.89,8.47-21.68,20.59-21.68,13.91,0,20.28,10.8,20.28,22.61,0,.93-.08,1.94-.16,3.11h-28.98c1.17,5.36,4.89,8.16,10.18,8.16,3.96,0,6.76-1.24,10.1-4.27l6.76,5.98c-3.96,4.9-9.48,7.77-17.02,7.77-12.51,0-21.75-8.78-21.75-21.52ZM704.36,189.09c-.7-5.28-3.81-8.86-8.78-8.86s-8.08,3.5-9.01,8.86h17.79Z"/>
  <path class="st0" d="M724.64,171.53h11.81v5.91c2.72-3.5,6.29-6.68,12.2-6.68,9.01,0,14.14,5.83,14.14,15.46v26.96h-11.81v-23.23c0-5.59-2.56-8.47-7.15-8.47s-7.38,2.88-7.38,8.47v23.23h-11.81v-41.65Z"/>
  <path class="st0" d="M771.02,192.58v-.16c0-11.97,9.63-21.68,22.61-21.68s22.46,9.48,22.46,21.52v.16c0,11.96-9.63,21.68-22.61,21.68s-22.45-9.48-22.45-21.52ZM804.43,192.58v-.16c0-6.14-4.43-11.5-10.96-11.5s-10.8,5.13-10.8,11.34v.16c0,6.14,4.43,11.5,10.96,11.5s10.8-5.13,10.8-11.34Z"/>
  <path class="st0" d="M818.57,171.53h12.51l9.32,27.89,9.4-27.89h12.28l-16.39,41.96h-10.72l-16.39-41.96Z"/>
  <path class="st0" d="M864.56,192.58v-.16c0-11.97,9.63-21.68,22.61-21.68s22.46,9.48,22.46,21.52v.16c0,11.96-9.63,21.68-22.61,21.68s-22.45-9.48-22.45-21.52ZM897.97,192.58v-.16c0-6.14-4.43-11.5-10.96-11.5s-10.8,5.13-10.8,11.34v.16c0,6.14,4.43,11.5,10.96,11.5s10.8-5.13,10.8-11.34Z"/>
</svg>