<?xml version="1.0" encoding="UTF-8"?>
<svg id="Layer_1" xmlns="http://www.w3.org/2000/svg" version="1.1" viewBox="0 0 1051.72 303.45">
  <!-- Generator: Adobe Illustrator 29.7.1, SVG Export Plug-In . SVG Version: 2.1.1 Build 8)  -->
  <defs>
    <style>
      .st0 {
        fill: #fff;
      }
    </style>
  </defs>
  <g>
    <path class="st0" d="M298.88,44.44h6.48l18.33,44.4,18.41-44.4h6.26l-22.16,51.9h-5.15l-22.16-51.9Z"/>
    <path class="st0" d="M356.23,43.33h6.48v6.26h-6.48v-6.26ZM356.6,57.91h5.67v38.06h-5.67v-38.06Z"/>
    <path class="st0" d="M371.69,57.91h6.26l12.81,31.58,12.88-31.58h6.11l-16.57,38.36h-5.01l-16.49-38.36Z"/>
    <path class="st0" d="M414.1,77.05v-.15c0-10.97,7.66-19.81,18.26-19.81,11.26,0,17.74,8.98,17.74,20.1,0,.81,0,1.18-.07,1.84h-30.19c.81,8.25,6.63,12.88,13.4,12.88,5.3,0,8.83-2.14,12-5.37l3.53,3.17c-3.83,4.34-8.39,7.14-15.68,7.14-10.38,0-19-8.02-19-19.8ZM444.36,74.84c-.59-6.85-4.49-12.96-12.15-12.96-6.7,0-11.56,5.6-12.37,12.96h24.52Z"/>
    <path class="st0" d="M479.78,77.05v-.15c0-10.97,7.66-19.81,18.26-19.81,11.26,0,17.74,8.98,17.74,20.1,0,.81,0,1.18-.07,1.84h-30.19c.81,8.25,6.63,12.88,13.4,12.88,5.3,0,8.83-2.14,12-5.37l3.53,3.17c-3.83,4.34-8.39,7.14-15.68,7.14-10.38,0-19-8.02-19-19.8ZM510.04,74.84c-.59-6.85-4.49-12.96-12.15-12.96-6.7,0-11.56,5.6-12.37,12.96h24.52Z"/>
    <path class="st0" d="M526.23,42.23h5.67v53.75h-5.67v-53.75Z"/>
    <path class="st0" d="M567.32,43.33h6.48v6.26h-6.48v-6.26ZM567.68,57.91h5.67v38.06h-5.67v-38.06Z"/>
    <path class="st0" d="M586.53,57.91h5.67v6.63c2.58-4.12,6.48-7.44,13.03-7.44,9.13,0,14.58,6.18,14.58,15.24v23.63h-5.67v-22.23c0-7.07-3.75-11.49-10.53-11.49s-11.41,4.79-11.41,11.93v21.79h-5.67v-38.06Z"/>
    <path class="st0" d="M632.03,43.33h6.48v6.26h-6.48v-6.26ZM632.4,57.91h5.67v38.06h-5.67v-38.06Z"/>
    <path class="st0" d="M648.89,77.13v-.15c0-10.82,8.32-19.88,19.51-19.88,7.21,0,11.63,2.95,15.24,6.77l-3.75,3.98c-3.02-3.17-6.33-5.74-11.56-5.74-7.73,0-13.62,6.48-13.62,14.72v.15c0,8.25,6.04,14.8,13.99,14.8,4.93,0,8.61-2.43,11.63-5.67l3.61,3.39c-3.83,4.34-8.39,7.36-15.53,7.36-11.19,0-19.51-9.06-19.51-19.73Z"/>
    <path class="st0" d="M693.44,43.33h6.48v6.26h-6.48v-6.26ZM693.81,57.91h5.67v38.06h-5.67v-38.06Z"/>
    <path class="st0" d="M710.3,77.13v-.15c0-10.82,8.32-19.88,19.88-19.88s19.8,8.98,19.8,19.73v.15c0,10.82-8.47,19.88-19.95,19.88s-19.73-8.98-19.73-19.73ZM744.17,77.13v-.15c0-8.17-6.11-14.87-14.14-14.87s-13.92,6.7-13.92,14.72v.15c0,8.17,6.04,14.8,14.06,14.8s13.99-6.7,13.99-14.65Z"/>
    <path class="st0" d="M188.62,154.67v-.15c0-12.37,9.06-19.8,18.18-19.8,7.07,0,11.63,3.75,14.58,8.1v-22.97h5.67v53.75h-5.67v-7.66c-3.17,4.56-7.51,8.47-14.58,8.47-9.13,0-18.18-7.22-18.18-19.73ZM221.6,154.59v-.15c0-8.76-6.7-14.65-13.77-14.65s-13.4,5.45-13.4,14.65v.15c0,9.06,6.11,14.73,13.4,14.73s13.77-5.96,13.77-14.73Z"/>
    <path class="st0" d="M237.36,154.67v-.15c0-10.97,7.66-19.8,18.26-19.8,11.26,0,17.74,8.98,17.74,20.1,0,.81,0,1.18-.07,1.84h-30.19c.81,8.25,6.63,12.88,13.4,12.88,5.3,0,8.83-2.14,12-5.37l3.53,3.17c-3.83,4.34-8.39,7.14-15.68,7.14-10.38,0-19-8.02-19-19.8ZM267.62,152.46c-.59-6.85-4.49-12.96-12.15-12.96-6.7,0-11.56,5.6-12.37,12.96h24.52Z"/>
    <path class="st0" d="M305.9,119.84h5.67v53.75h-5.67v-53.75Z"/>
    <path class="st0" d="M321.88,162.54v-.15c0-7.95,6.63-12.29,16.27-12.29,4.93,0,8.25.66,11.71,1.62v-1.33c0-6.85-4.2-10.38-11.34-10.38-4.49,0-8.03,1.1-11.56,2.8l-1.69-4.64c4.2-1.99,8.25-3.17,13.84-3.17s9.5,1.4,12.29,4.2c2.58,2.58,3.9,6.33,3.9,11.12v23.27h-5.45v-5.74c-2.65,3.46-6.99,6.55-13.77,6.55s-14.21-3.98-14.21-11.85ZM349.93,159.6v-3.68c-2.87-.81-6.48-1.62-11.19-1.62-7.14,0-11.12,3.09-11.12,7.88v.15c0,4.79,4.49,7.58,9.57,7.58,7.07,0,12.74-4.27,12.74-10.31Z"/>
    <path class="st0" d="M389.47,135.52h5.67v6.63c2.58-4.12,6.48-7.44,13.03-7.44,9.13,0,14.58,6.18,14.58,15.24v23.63h-5.67v-22.23c0-7.07-3.75-11.49-10.53-11.49s-11.41,4.79-11.41,11.93v21.79h-5.67v-38.06Z"/>
    <path class="st0" d="M434.23,159.16v-23.63h5.67v22.23c0,7.07,3.75,11.49,10.53,11.49s11.41-4.79,11.41-11.93v-21.79h5.6v38.06h-5.6v-6.63c-2.58,4.12-6.48,7.44-13.03,7.44-9.13,0-14.58-6.18-14.58-15.24Z"/>
    <path class="st0" d="M477.82,154.67v-.15c0-10.97,7.66-19.8,18.26-19.8,11.26,0,17.74,8.98,17.74,20.1,0,.81,0,1.18-.07,1.84h-30.19c.81,8.25,6.63,12.88,13.4,12.88,5.3,0,8.83-2.14,12-5.37l3.53,3.17c-3.83,4.34-8.39,7.14-15.68,7.14-10.38,0-19-8.02-19-19.8ZM508.08,152.46c-.59-6.85-4.49-12.96-12.15-12.96-6.7,0-11.56,5.6-12.37,12.96h24.52Z"/>
    <path class="st0" d="M518.17,135.52h6.26l12.81,31.58,12.88-31.58h6.11l-16.57,38.36h-5.01l-16.49-38.36Z"/>
    <path class="st0" d="M560.43,162.54v-.15c0-7.95,6.63-12.29,16.27-12.29,4.93,0,8.25.66,11.71,1.62v-1.33c0-6.85-4.2-10.38-11.34-10.38-4.49,0-8.03,1.1-11.56,2.8l-1.69-4.64c4.2-1.99,8.25-3.17,13.84-3.17s9.5,1.4,12.29,4.2c2.58,2.58,3.9,6.33,3.9,11.12v23.27h-5.45v-5.74c-2.65,3.46-6.99,6.55-13.77,6.55s-14.21-3.98-14.21-11.85ZM588.48,159.6v-3.68c-2.87-.81-6.48-1.62-11.19-1.62-7.14,0-11.12,3.09-11.12,7.88v.15c0,4.79,4.49,7.58,9.57,7.58,7.07,0,12.74-4.27,12.74-10.31Z"/>
    <path class="st0" d="M624.78,154.08v-.15c0-11.26,8.03-20.54,19.51-20.54,13.18,0,19.22,10.23,19.22,21.42,0,.88-.07,1.84-.15,2.94h-27.46c1.1,5.08,4.64,7.73,9.65,7.73,3.75,0,6.41-1.18,9.57-4.05l6.41,5.67c-3.75,4.64-8.98,7.36-16.12,7.36-11.85,0-20.62-8.32-20.62-20.39ZM652.61,150.77c-.66-5.01-3.61-8.39-8.32-8.39s-7.66,3.31-8.54,8.39h16.86Z"/>
    <path class="st0" d="M671.83,134.13h11.19v7.95c2.28-5.37,5.89-8.98,12.59-8.69v11.71h-.59c-7.44,0-12,4.42-12,13.91v14.58h-11.19v-39.46Z"/>
    <path class="st0" d="M698.41,162.25v-.15c0-8.54,6.55-12.59,15.9-12.59,4.05,0,6.77.66,9.65,1.62v-.66c0-4.71-2.87-7.22-8.47-7.22-4.34,0-7.29.74-10.9,2.14l-2.8-8.54c4.34-1.84,8.61-3.17,15.31-3.17,6.18,0,10.46,1.55,13.33,4.42s4.27,7.29,4.27,12.59v22.9h-10.82v-4.27c-2.72,3.02-6.41,5.01-11.93,5.01-7.44,0-13.55-4.2-13.55-12.07ZM724.1,159.67v-1.99c-1.99-.88-4.42-1.47-7.14-1.47-4.79,0-7.73,1.91-7.73,5.45v.15c0,3.02,2.5,4.79,6.11,4.79,5.3,0,8.76-2.8,8.76-6.92Z"/>
    <path class="st0" d="M768.13,122.05h11.34v51.54h-11.34v-51.54Z"/>
    <path class="st0" d="M810.02,121.68h10.45l22.09,51.9h-11.85l-4.71-11.56h-21.79l-4.71,11.56h-11.56l22.09-51.9ZM821.95,152.02l-6.85-16.71-6.85,16.71h13.69Z"/>
    <path class="st0" d="M848.9,161.81h11.93v11.78h-11.93v-11.78Z"/>
  </g>
  <g>
    <path class="st0" d="M122.14,220.8h7.24v26.32h16.4v6.58h-23.64v-32.9Z"/>
    <path class="st0" d="M148.79,241.25v-.09c0-7.19,5.12-13.11,12.45-13.11,8.41,0,12.27,6.53,12.27,13.68,0,.56-.05,1.18-.09,1.88h-17.53c.71,3.24,2.96,4.94,6.16,4.94,2.4,0,4.09-.75,6.11-2.58l4.09,3.62c-2.4,2.96-5.73,4.7-10.29,4.7-7.57,0-13.16-5.31-13.16-13.02ZM166.55,239.13c-.42-3.2-2.3-5.36-5.31-5.36s-4.89,2.11-5.45,5.36h10.76Z"/>
    <path class="st0" d="M178.82,228.51h7.14v3.57c1.65-2.11,3.81-4.04,7.38-4.04,5.45,0,8.55,3.52,8.55,9.35v16.31h-7.14v-14.05c0-3.38-1.55-5.12-4.32-5.12s-4.46,1.74-4.46,5.12v14.05h-7.14v-25.19Z"/>
    <path class="st0" d="M206.88,241.25v-.09c0-7.24,5.83-13.11,13.68-13.11s13.58,5.73,13.58,13.02v.09c0,7.24-5.83,13.11-13.68,13.11s-13.58-5.73-13.58-13.02ZM227.09,241.25v-.09c0-3.71-2.68-6.96-6.63-6.96s-6.53,3.1-6.53,6.86v.09c0,3.71,2.68,6.96,6.63,6.96s6.53-3.1,6.53-6.86Z"/>
    <path class="st0" d="M235.64,228.51h7.57l5.64,16.87,5.69-16.87h7.42l-9.92,25.38h-6.49l-9.92-25.38Z"/>
    <path class="st0" d="M263.47,241.25v-.09c0-7.24,5.83-13.11,13.68-13.11s13.58,5.73,13.58,13.02v.09c0,7.24-5.83,13.11-13.68,13.11s-13.58-5.73-13.58-13.02ZM283.68,241.25v-.09c0-3.71-2.68-6.96-6.63-6.96s-6.53,3.1-6.53,6.86v.09c0,3.71,2.68,6.96,6.63,6.96s6.53-3.1,6.53-6.86Z"/>
    <path class="st0" d="M318.5,240.4h-8.51v-6.49h8.51v-8.46h6.67v8.46h8.51v6.49h-8.51v8.46h-6.67v-8.46Z"/>
    <path class="st0" d="M353.47,237.35v-.09c0-9.35,7.05-17.01,17.15-17.01,6.16,0,9.96,2.07,12.97,5.08l-4.61,5.31c-2.58-2.3-5.08-3.71-8.41-3.71-5.55,0-9.54,4.61-9.54,10.25v.09c0,5.64,3.9,10.34,9.54,10.34,3.76,0,6.06-1.46,8.65-3.85l4.61,4.65c-3.38,3.62-7.1,5.87-13.49,5.87-9.68,0-16.87-7.47-16.87-16.92Z"/>
    <path class="st0" d="M387.17,241.25v-.09c0-7.24,5.83-13.11,13.68-13.11s13.58,5.73,13.58,13.02v.09c0,7.24-5.83,13.11-13.68,13.11s-13.58-5.73-13.58-13.02ZM407.38,241.25v-.09c0-3.71-2.68-6.96-6.63-6.96s-6.53,3.1-6.53,6.86v.09c0,3.71,2.68,6.96,6.63,6.96s6.53-3.1,6.53-6.86Z"/>
    <path class="st0" d="M419.6,228.51h7.14v3.62c1.74-2.4,4.09-4.09,7.85-4.09,5.88,0,11.47,4.61,11.47,13.02v.09c0,8.41-5.5,13.02-11.47,13.02-3.81,0-6.16-1.74-7.85-3.76v10.81h-7.14v-32.71ZM438.91,241.15v-.09c0-4.18-2.82-6.96-6.16-6.96s-6.11,2.77-6.11,6.96v.09c0,4.18,2.77,6.96,6.11,6.96s6.16-2.73,6.16-6.96Z"/>
    <path class="st0" d="M451.46,219.39h7.52v6.34h-7.52v-6.34ZM451.65,228.51h7.14v25.19h-7.14v-25.19Z"/>
    <path class="st0" d="M465.84,219.39h7.14v34.31h-7.14v-34.31Z"/>
    <path class="st0" d="M478.49,241.25v-.09c0-7.24,5.83-13.11,13.68-13.11s13.58,5.73,13.58,13.02v.09c0,7.24-5.83,13.11-13.68,13.11s-13.58-5.73-13.58-13.02ZM498.7,241.25v-.09c0-3.71-2.68-6.96-6.63-6.96s-6.53,3.1-6.53,6.86v.09c0,3.71,2.68,6.96,6.63,6.96s6.53-3.1,6.53-6.86Z"/>
    <path class="st0" d="M512.09,246.56v-11.94h-3.01v-6.11h3.01v-6.44h7.14v6.44h5.92v6.11h-5.92v10.76c0,1.65.75,2.44,2.3,2.44,1.27,0,2.44-.28,3.52-.89v5.73c-1.5.89-3.24,1.46-5.64,1.46-4.32,0-7.33-1.74-7.33-7.57Z"/>
    <path class="st0" d="M544.85,219.39h7.14v34.31h-7.14v-34.31Z"/>
    <path class="st0" d="M557.49,241.25v-.09c0-7.24,5.83-13.11,13.68-13.11s13.58,5.73,13.58,13.02v.09c0,7.24-5.83,13.11-13.68,13.11s-13.58-5.73-13.58-13.02ZM577.7,241.25v-.09c0-3.71-2.68-6.96-6.63-6.96s-6.53,3.1-6.53,6.86v.09c0,3.71,2.68,6.96,6.63,6.96s6.53-3.1,6.53-6.86Z"/>
    <path class="st0" d="M604.02,219.39h7.14v12.69c1.64-2.11,3.81-4.04,7.38-4.04,5.45,0,8.55,3.52,8.55,9.35v16.31h-7.14v-14.05c0-3.38-1.55-5.12-4.32-5.12s-4.46,1.74-4.46,5.12v14.05h-7.14v-34.31Z"/>
    <path class="st0" d="M631.8,246.46v-.09c0-5.45,4.18-8.04,10.15-8.04,2.58,0,4.32.42,6.16,1.03v-.42c0-3.01-1.83-4.61-5.41-4.61-2.77,0-4.65.47-6.96,1.36l-1.79-5.45c2.77-1.17,5.5-2.02,9.78-2.02,3.95,0,6.67.99,8.51,2.82,1.88,1.88,2.73,4.65,2.73,8.04v14.62h-6.91v-2.73c-1.74,1.93-4.09,3.2-7.61,3.2-4.75,0-8.65-2.68-8.65-7.71ZM648.2,244.82v-1.27c-1.27-.56-2.82-.94-4.56-.94-3.05,0-4.93,1.22-4.93,3.48v.09c0,1.93,1.6,3.05,3.9,3.05,3.38,0,5.59-1.79,5.59-4.42Z"/>
    <path class="st0" d="M659.9,241.25v-.09c0-7.19,5.5-13.11,13.21-13.11,4.75,0,7.66,1.6,10.06,4.23l-4.37,4.7c-1.64-1.69-3.15-2.77-5.73-2.77-3.57,0-6.11,3.1-6.11,6.86v.09c0,3.9,2.49,6.96,6.39,6.96,2.4,0,4.04-1.03,5.78-2.68l4.18,4.23c-2.44,2.68-5.26,4.61-10.29,4.61-7.57,0-13.11-5.87-13.11-13.02Z"/>
    <path class="st0" d="M686.04,241.25v-.09c0-7.19,5.12-13.11,12.45-13.11,8.41,0,12.27,6.53,12.27,13.68,0,.56-.05,1.18-.09,1.88h-17.53c.71,3.24,2.96,4.94,6.16,4.94,2.4,0,4.09-.75,6.11-2.58l4.09,3.62c-2.4,2.96-5.73,4.7-10.29,4.7-7.57,0-13.16-5.31-13.16-13.02ZM703.8,239.13c-.42-3.2-2.3-5.36-5.31-5.36s-4.89,2.11-5.45,5.36h10.76Z"/>
    <path class="st0" d="M716.07,228.51h7.14v3.57c1.65-2.11,3.81-4.04,7.38-4.04,5.45,0,8.55,3.52,8.55,9.35v16.31h-7.14v-14.05c0-3.38-1.55-5.12-4.32-5.12s-4.46,1.74-4.46,5.12v14.05h-7.14v-25.19Z"/>
    <path class="st0" d="M759.45,228.51h7.14v3.62c1.74-2.4,4.09-4.09,7.85-4.09,5.88,0,11.47,4.61,11.47,13.02v.09c0,8.41-5.5,13.02-11.47,13.02-3.81,0-6.16-1.74-7.85-3.76v10.81h-7.14v-32.71ZM778.76,241.15v-.09c0-4.18-2.82-6.96-6.16-6.96s-6.11,2.77-6.11,6.96v.09c0,4.18,2.77,6.96,6.11,6.96s6.16-2.73,6.16-6.96Z"/>
    <path class="st0" d="M789.95,241.25v-.09c0-7.24,5.83-13.11,13.68-13.11s13.58,5.73,13.58,13.02v.09c0,7.24-5.83,13.11-13.68,13.11s-13.58-5.73-13.58-13.02ZM810.16,241.25v-.09c0-3.71-2.68-6.96-6.63-6.96s-6.53,3.1-6.53,6.86v.09c0,3.71,2.68,6.96,6.63,6.96s6.53-3.1,6.53-6.86Z"/>
    <path class="st0" d="M820.41,250.36l3.05-4.7c2.77,2.02,5.55,3.01,7.94,3.01,2.07,0,3.01-.75,3.01-1.88v-.09c0-1.55-2.44-2.02-5.22-2.91-3.53-.99-7.52-2.68-7.52-7.57v-.09c0-5.12,4.14-7.99,9.21-7.99,3.2,0,6.63,1.08,9.4,2.91l-2.73,4.94c-2.49-1.46-4.98-2.35-6.81-2.35s-2.63.75-2.63,1.74v.09c0,1.32,2.4,2.16,5.12,3.01,3.53,1.13,7.61,2.87,7.61,7.47v.09c0,5.59-4.18,8.13-9.63,8.13-3.57,0-7.43-1.18-10.81-3.81Z"/>
    <path class="st0" d="M846.11,219.39h7.52v6.34h-7.52v-6.34ZM846.3,228.51h7.14v25.19h-7.14v-25.19Z"/>
    <path class="st0" d="M867.31,250.41v3.29h-7.14v-34.31h7.14v12.74c1.74-2.4,4.09-4.09,7.85-4.09,5.88,0,11.47,4.61,11.47,13.02v.09c0,8.41-5.5,13.02-11.47,13.02-3.81,0-6.16-1.74-7.85-3.76ZM879.48,241.15v-.09c0-4.18-2.82-6.96-6.16-6.96s-6.11,2.77-6.11,6.96v.09c0,4.18,2.77,6.96,6.11,6.96s6.16-2.73,6.16-6.96Z"/>
    <path class="st0" d="M892.22,219.39h7.14v34.31h-7.14v-34.31Z"/>
    <path class="st0" d="M904.86,241.25v-.09c0-7.19,5.12-13.11,12.45-13.11,8.41,0,12.27,6.53,12.27,13.68,0,.56-.05,1.18-.09,1.88h-17.53c.71,3.24,2.96,4.94,6.16,4.94,2.4,0,4.09-.75,6.11-2.58l4.09,3.62c-2.4,2.96-5.73,4.7-10.29,4.7-7.57,0-13.16-5.31-13.16-13.02ZM922.63,239.13c-.42-3.2-2.3-5.36-5.31-5.36s-4.89,2.11-5.45,5.36h10.76Z"/>
  </g>
</svg>