<?xml version="1.0" encoding="UTF-8"?>
<svg id="Layer_1" xmlns="http://www.w3.org/2000/svg" version="1.1" viewBox="0 0 1051.72 303.45">
  <!-- Generator: Adobe Illustrator 29.7.1, SVG Export Plug-In . SVG Version: 2.1.1 Build 8)  -->
  <defs>
    <style>
      .st0 {
        fill: #fff;
      }
    </style>
  </defs>
  <path class="st0" d="M194.21,43.55h5.82v46.16h29.01v5.37h-34.82v-51.54Z"/>
  <path class="st0" d="M235.74,76.17v-.15c0-10.97,7.66-19.81,18.26-19.81,11.26,0,17.74,8.98,17.74,20.1,0,.81,0,1.18-.07,1.84h-30.19c.81,8.25,6.63,12.88,13.4,12.88,5.3,0,8.83-2.14,12-5.37l3.53,3.17c-3.83,4.34-8.39,7.14-15.68,7.14-10.38,0-19-8.02-19-19.8ZM266,73.96c-.59-6.85-4.49-12.96-12.15-12.96-6.7,0-11.56,5.6-12.37,12.96h24.52Z"/>
  <path class="st0" d="M276.08,57.03h6.26l12.81,31.58,12.88-31.58h6.11l-16.57,38.36h-5.01l-16.49-38.36Z"/>
  <path class="st0" d="M318.35,84.05v-.15c0-7.95,6.63-12.29,16.27-12.29,4.93,0,8.25.66,11.71,1.62v-1.33c0-6.85-4.2-10.38-11.34-10.38-4.49,0-8.03,1.1-11.56,2.8l-1.69-4.64c4.2-1.99,8.25-3.17,13.84-3.17s9.5,1.4,12.29,4.2c2.58,2.58,3.9,6.33,3.9,11.12v23.27h-5.45v-5.74c-2.65,3.46-6.99,6.55-13.77,6.55s-14.21-3.98-14.21-11.85ZM346.4,81.1v-3.68c-2.87-.81-6.48-1.62-11.19-1.62-7.14,0-11.12,3.09-11.12,7.88v.15c0,4.79,4.49,7.58,9.57,7.58,7.07,0,12.74-4.27,12.74-10.31Z"/>
  <path class="st0" d="M363.85,57.03h5.67v6.63c2.58-4.12,6.48-7.44,13.03-7.44,9.13,0,14.58,6.18,14.58,15.24v23.63h-5.67v-22.23c0-7.07-3.75-11.49-10.53-11.49s-11.41,4.79-11.41,11.93v21.79h-5.67v-38.06Z"/>
  <path class="st0" d="M411.19,85v-22.97h-5.3v-5.01h5.3v-11.49h5.67v11.49h12.07v5.01h-12.07v22.23c0,4.71,2.58,6.33,6.41,6.33,1.99,0,3.53-.37,5.52-1.33v4.86c-1.99,1.1-4.12,1.62-6.85,1.62-6.18,0-10.75-3.02-10.75-10.75Z"/>
  <path class="st0" d="M436.08,84.05v-.15c0-7.95,6.63-12.29,16.27-12.29,4.93,0,8.25.66,11.71,1.62v-1.33c0-6.85-4.2-10.38-11.34-10.38-4.49,0-8.03,1.1-11.56,2.8l-1.69-4.64c4.2-1.99,8.25-3.17,13.84-3.17s9.5,1.4,12.29,4.2c2.58,2.58,3.9,6.33,3.9,11.12v23.27h-5.45v-5.74c-2.65,3.46-6.99,6.55-13.77,6.55s-14.21-3.98-14.21-11.85ZM464.13,81.1v-3.68c-2.87-.81-6.48-1.62-11.19-1.62-7.14,0-11.12,3.09-11.12,7.88v.15c0,4.79,4.49,7.58,9.57,7.58,7.07,0,12.74-4.27,12.74-10.31Z"/>
  <path class="st0" d="M504.18,41.35h5.67v53.75h-5.67v-53.75Z"/>
  <path class="st0" d="M520.67,76.24v-.15c0-10.82,8.32-19.88,19.88-19.88s19.8,8.98,19.8,19.73v.15c0,10.82-8.47,19.88-19.95,19.88s-19.73-8.98-19.73-19.73ZM554.54,76.24v-.15c0-8.17-6.11-14.87-14.14-14.87s-13.92,6.7-13.92,14.72v.15c0,8.17,6.04,14.8,14.06,14.8s13.99-6.7,13.99-14.65Z"/>
  <path class="st0" d="M567.43,90.23l2.87-4.05c4.12,3.17,8.69,4.86,13.18,4.86s7.88-2.28,7.88-6.04v-.15c0-3.75-4.49-5.3-9.5-6.7-5.89-1.77-12.59-3.68-12.59-10.75v-.15c0-6.55,5.45-10.9,12.96-10.9,4.71,0,9.79,1.62,13.69,4.2l-2.58,4.27c-3.53-2.28-7.51-3.68-11.26-3.68-4.49,0-7.36,2.36-7.36,5.52v.15c0,3.61,4.71,5.01,9.79,6.55,5.89,1.77,12.22,4.05,12.22,10.9v.15c0,7.21-5.96,11.41-13.55,11.41-5.52,0-11.41-2.14-15.75-5.6Z"/>
  <path class="st0" d="M635.01,87.8v7.29h-5.67v-53.75h5.67v23.34c3.17-4.49,7.51-8.47,14.58-8.47,9.13,0,18.19,7.22,18.19,19.73v.15c0,12.37-8.98,19.81-18.19,19.81-7.07,0-11.63-3.75-14.58-8.1ZM661.96,76.17v-.15c0-9.06-6.11-14.73-13.4-14.73s-13.77,6.04-13.77,14.65v.15c0,8.83,6.7,14.73,13.77,14.73s13.4-5.45,13.4-14.65Z"/>
  <path class="st0" d="M678.23,57.03h5.67v9.94c2.8-6.33,8.32-10.82,15.53-10.6v6.11h-.44c-8.32,0-15.09,5.96-15.09,17.45v15.17h-5.67v-38.06Z"/>
  <path class="st0" d="M703.34,84.05v-.15c0-7.95,6.63-12.29,16.27-12.29,4.93,0,8.25.66,11.71,1.62v-1.33c0-6.85-4.2-10.38-11.34-10.38-4.49,0-8.03,1.1-11.56,2.8l-1.69-4.64c4.2-1.99,8.25-3.17,13.84-3.17s9.5,1.4,12.29,4.2c2.58,2.58,3.9,6.33,3.9,11.12v23.27h-5.45v-5.74c-2.65,3.46-6.99,6.55-13.77,6.55s-14.21-3.98-14.21-11.85ZM731.39,81.1v-3.68c-2.87-.81-6.48-1.62-11.19-1.62-7.14,0-11.12,3.09-11.12,7.88v.15c0,4.79,4.49,7.58,9.57,7.58,7.07,0,12.74-4.27,12.74-10.31Z"/>
  <path class="st0" d="M746.63,91.48l25.25-29.67h-24.37v-4.79h32.1v3.61l-25.33,29.67h25.33v4.79h-32.98v-3.61Z"/>
  <path class="st0" d="M786.32,76.24v-.15c0-10.82,8.32-19.88,19.88-19.88s19.8,8.98,19.8,19.73v.15c0,10.82-8.47,19.88-19.95,19.88s-19.73-8.98-19.73-19.73ZM820.18,76.24v-.15c0-8.17-6.11-14.87-14.14-14.87s-13.92,6.7-13.92,14.72v.15c0,8.17,6.04,14.8,14.06,14.8s13.99-6.7,13.99-14.65Z"/>
  <path class="st0" d="M833.07,90.23l2.87-4.05c4.12,3.17,8.69,4.86,13.18,4.86s7.88-2.28,7.88-6.04v-.15c0-3.75-4.49-5.3-9.5-6.7-5.89-1.77-12.59-3.68-12.59-10.75v-.15c0-6.55,5.45-10.9,12.96-10.9,4.71,0,9.79,1.62,13.69,4.2l-2.58,4.27c-3.53-2.28-7.51-3.68-11.26-3.68-4.49,0-7.36,2.36-7.36,5.52v.15c0,3.61,4.71,5.01,9.79,6.55,5.89,1.77,12.22,4.05,12.22,10.9v.15c0,7.21-5.96,11.41-13.55,11.41-5.52,0-11.41-2.14-15.75-5.6Z"/>
  <path class="st0" d="M36.36,153.79v-.15c0-10.97,7.66-19.8,18.26-19.8,11.26,0,17.74,8.98,17.74,20.1,0,.81,0,1.18-.07,1.84h-30.19c.81,8.25,6.63,12.88,13.4,12.88,5.3,0,8.83-2.14,12-5.37l3.53,3.17c-3.83,4.34-8.39,7.14-15.68,7.14-10.38,0-19-8.02-19-19.8ZM66.62,151.58c-.59-6.85-4.49-12.96-12.15-12.96-6.7,0-11.56,5.6-12.37,12.96h24.52Z"/>
  <path class="st0" d="M82.3,134.64h5.67v6.63c2.58-4.12,6.48-7.44,13.03-7.44,9.13,0,14.58,6.18,14.58,15.24v23.63h-5.67v-22.23c0-7.07-3.75-11.49-10.53-11.49s-11.41,4.79-11.41,11.93v21.79h-5.67v-38.06Z"/>
  <path class="st0" d="M147.38,153.86v-.15c0-10.82,8.32-19.88,19.51-19.88,7.21,0,11.63,2.94,15.24,6.77l-3.75,3.98c-3.02-3.17-6.33-5.74-11.56-5.74-7.73,0-13.62,6.48-13.62,14.72v.15c0,8.25,6.04,14.8,13.99,14.8,4.93,0,8.61-2.43,11.63-5.67l3.61,3.39c-3.83,4.34-8.39,7.36-15.53,7.36-11.19,0-19.51-9.06-19.51-19.73Z"/>
  <path class="st0" d="M190.9,158.28v-23.63h5.67v22.23c0,7.07,3.75,11.49,10.53,11.49s11.41-4.79,11.41-11.93v-21.79h5.6v38.06h-5.6v-6.63c-2.58,4.12-6.48,7.44-13.03,7.44-9.13,0-14.58-6.18-14.58-15.24Z"/>
  <path class="st0" d="M233.97,161.66v-.15c0-7.95,6.63-12.29,16.27-12.29,4.93,0,8.25.66,11.71,1.62v-1.33c0-6.85-4.2-10.38-11.34-10.38-4.49,0-8.03,1.1-11.56,2.8l-1.69-4.64c4.2-1.99,8.25-3.17,13.84-3.17s9.5,1.4,12.29,4.2c2.58,2.58,3.9,6.33,3.9,11.12v23.27h-5.45v-5.74c-2.65,3.46-6.99,6.55-13.77,6.55s-14.21-3.98-14.21-11.85ZM262.02,158.72v-3.68c-2.87-.81-6.48-1.62-11.19-1.62-7.14,0-11.12,3.09-11.12,7.88v.15c0,4.79,4.49,7.58,9.57,7.58,7.07,0,12.74-4.27,12.74-10.31Z"/>
  <path class="st0" d="M279.99,118.96h5.67v53.75h-5.67v-53.75Z"/>
  <path class="st0" d="M329.39,165.05c-3.17,4.56-7.51,8.47-14.58,8.47-9.13,0-18.18-7.22-18.18-19.73v-.15c0-12.37,9.06-19.8,18.18-19.8,7.07,0,11.63,3.75,14.58,8.1v-7.29h5.67v49.84h-5.67v-19.44ZM329.61,153.71v-.15c0-8.76-6.7-14.65-13.77-14.65s-13.4,5.45-13.4,14.65v.15c0,9.06,6.11,14.73,13.4,14.73s13.77-5.96,13.77-14.73Z"/>
  <path class="st0" d="M347.13,158.28v-23.63h5.67v22.23c0,7.07,3.75,11.49,10.53,11.49s11.41-4.79,11.41-11.93v-21.79h5.6v38.06h-5.6v-6.63c-2.58,4.12-6.48,7.44-13.03,7.44-9.13,0-14.58-6.18-14.58-15.24Z"/>
  <path class="st0" d="M393.22,120.07h6.48v6.26h-6.48v-6.26ZM393.59,134.64h5.67v38.06h-5.67v-38.06Z"/>
  <path class="st0" d="M410.08,153.79v-.15c0-10.97,7.66-19.8,18.26-19.8,11.26,0,17.74,8.98,17.74,20.1,0,.81,0,1.18-.07,1.84h-30.19c.81,8.25,6.63,12.88,13.4,12.88,5.3,0,8.83-2.14,12-5.37l3.53,3.17c-3.83,4.34-8.39,7.14-15.68,7.14-10.38,0-19-8.02-19-19.8ZM440.34,151.58c-.59-6.85-4.49-12.96-12.15-12.96-6.7,0-11.56,5.6-12.37,12.96h24.52Z"/>
  <path class="st0" d="M456.03,134.64h5.67v9.94c2.8-6.33,8.32-10.82,15.53-10.6v6.11h-.44c-8.32,0-15.09,5.96-15.09,17.45v15.17h-5.67v-38.06Z"/>
  <path class="st0" d="M505.72,153.79v-.15c0-12.37,9.06-19.8,18.18-19.8,7.07,0,11.63,3.75,14.58,8.1v-22.97h5.67v53.75h-5.67v-7.66c-3.17,4.56-7.51,8.47-14.58,8.47-9.13,0-18.18-7.22-18.18-19.73ZM538.71,153.71v-.15c0-8.76-6.7-14.65-13.77-14.65s-13.4,5.45-13.4,14.65v.15c0,9.06,6.11,14.73,13.4,14.73s13.77-5.96,13.77-14.73Z"/>
  <path class="st0" d="M556.97,120.07h6.48v6.26h-6.48v-6.26ZM557.34,134.64h5.67v38.06h-5.67v-38.06Z"/>
  <path class="st0" d="M576.18,134.64h5.67v9.94c2.8-6.33,8.32-10.82,15.53-10.6v6.11h-.44c-8.32,0-15.09,5.96-15.09,17.45v15.17h-5.67v-38.06Z"/>
  <path class="st0" d="M602.03,153.79v-.15c0-10.97,7.66-19.8,18.26-19.8,11.26,0,17.74,8.98,17.74,20.1,0,.81,0,1.18-.07,1.84h-30.19c.81,8.25,6.63,12.88,13.4,12.88,5.3,0,8.83-2.14,12-5.37l3.53,3.17c-3.83,4.34-8.39,7.14-15.68,7.14-10.38,0-19-8.02-19-19.8ZM632.29,151.58c-.59-6.85-4.49-12.96-12.15-12.96-6.7,0-11.56,5.6-12.37,12.96h24.52Z"/>
  <path class="st0" d="M645.62,153.86v-.15c0-10.82,8.32-19.88,19.51-19.88,7.21,0,11.63,2.94,15.24,6.77l-3.75,3.98c-3.02-3.17-6.33-5.74-11.56-5.74-7.73,0-13.62,6.48-13.62,14.72v.15c0,8.25,6.04,14.8,13.99,14.8,4.93,0,8.61-2.43,11.63-5.67l3.61,3.39c-3.83,4.34-8.39,7.36-15.53,7.36-11.19,0-19.51-9.06-19.51-19.73Z"/>
  <path class="st0" d="M686.55,153.86v-.15c0-10.82,8.32-19.88,19.51-19.88,7.21,0,11.63,2.94,15.24,6.77l-3.75,3.98c-3.02-3.17-6.33-5.74-11.56-5.74-7.73,0-13.62,6.48-13.62,14.72v.15c0,8.25,6.04,14.8,13.99,14.8,4.93,0,8.61-2.43,11.63-5.67l3.61,3.39c-3.83,4.34-8.39,7.36-15.53,7.36-11.19,0-19.51-9.06-19.51-19.73Z"/>
  <path class="st0" d="M731.1,120.07h6.48v6.26h-6.48v-6.26ZM731.46,134.64h5.67v38.06h-5.67v-38.06Z"/>
  <path class="st0" d="M747.96,153.86v-.15c0-10.82,8.32-19.88,19.88-19.88s19.8,8.98,19.8,19.73v.15c0,10.82-8.47,19.88-19.95,19.88s-19.73-8.98-19.73-19.73ZM781.82,153.86v-.15c0-8.17-6.11-14.87-14.14-14.87s-13.92,6.7-13.92,14.72v.15c0,8.17,6.04,14.8,14.06,14.8s13.99-6.7,13.99-14.65ZM772.4,118.23l5.89,2.72-8.39,7.95h-4.42l6.92-10.68Z"/>
  <path class="st0" d="M797.88,134.64h5.67v6.63c2.58-4.12,6.48-7.44,13.03-7.44,9.13,0,14.58,6.18,14.58,15.24v23.63h-5.67v-22.23c0-7.07-3.75-11.49-10.53-11.49s-11.41,4.79-11.41,11.93v21.79h-5.67v-38.06Z"/>
  <path class="st0" d="M865.32,134.64h5.67v7.66c3.17-4.49,7.51-8.47,14.58-8.47,9.13,0,18.19,7.21,18.19,19.73v.15c0,12.37-8.98,19.81-18.19,19.81-7.07,0-11.63-3.75-14.58-8.1v19.07h-5.67v-49.84ZM897.93,153.79v-.15c0-9.06-6.11-14.73-13.4-14.73s-13.77,6.04-13.77,14.65v.15c0,8.83,6.7,14.73,13.77,14.73s13.4-5.45,13.4-14.65Z"/>
  <path class="st0" d="M911.33,161.66v-.15c0-7.95,6.63-12.29,16.27-12.29,4.93,0,8.25.66,11.71,1.62v-1.33c0-6.85-4.2-10.38-11.34-10.38-4.49,0-8.03,1.1-11.56,2.8l-1.69-4.64c4.2-1.99,8.25-3.17,13.84-3.17s9.5,1.4,12.29,4.2c2.58,2.58,3.9,6.33,3.9,11.12v23.27h-5.45v-5.74c-2.65,3.46-6.99,6.55-13.77,6.55s-14.21-3.98-14.21-11.85ZM939.38,158.72v-3.68c-2.87-.81-6.48-1.62-11.19-1.62-7.14,0-11.12,3.09-11.12,7.88v.15c0,4.79,4.49,7.58,9.57,7.58,7.07,0,12.74-4.27,12.74-10.31Z"/>
  <path class="st0" d="M956.84,134.64h5.67v9.94c2.8-6.33,8.32-10.82,15.53-10.6v6.11h-.44c-8.32,0-15.09,5.96-15.09,17.45v15.17h-5.67v-38.06Z"/>
  <path class="st0" d="M981.94,161.66v-.15c0-7.95,6.63-12.29,16.27-12.29,4.93,0,8.25.66,11.71,1.62v-1.33c0-6.85-4.2-10.38-11.34-10.38-4.49,0-8.03,1.1-11.56,2.8l-1.69-4.64c4.2-1.99,8.25-3.17,13.84-3.17s9.5,1.4,12.29,4.2c2.58,2.58,3.9,6.33,3.9,11.12v23.27h-5.45v-5.74c-2.65,3.46-6.99,6.55-13.77,6.55s-14.21-3.98-14.21-11.85ZM1009.99,158.72v-3.68c-2.87-.81-6.48-1.62-11.19-1.62-7.14,0-11.12,3.09-11.12,7.88v.15c0,4.79,4.49,7.58,9.57,7.58,7.07,0,12.74-4.27,12.74-10.31Z"/>
  <path class="st0" d="M144.18,239.28v-.15c0-7.95,6.63-12.29,16.27-12.29,4.93,0,8.25.66,11.71,1.62v-1.33c0-6.85-4.2-10.38-11.34-10.38-4.49,0-8.03,1.1-11.56,2.8l-1.69-4.64c4.2-1.99,8.25-3.17,13.84-3.17s9.5,1.4,12.29,4.2c2.58,2.58,3.9,6.33,3.9,11.12v23.27h-5.45v-5.74c-2.65,3.46-6.99,6.55-13.77,6.55s-14.21-3.98-14.21-11.85ZM172.23,236.33v-3.68c-2.87-.81-6.48-1.62-11.19-1.62-7.14,0-11.12,3.09-11.12,7.88v.15c0,4.79,4.49,7.58,9.57,7.58,7.07,0,12.74-4.27,12.74-10.31Z"/>
  <path class="st0" d="M187.33,231.47v-.15c0-10.82,8.32-19.88,19.51-19.88,7.21,0,11.63,2.95,15.24,6.77l-3.75,3.98c-3.02-3.17-6.33-5.74-11.56-5.74-7.73,0-13.62,6.48-13.62,14.72v.15c0,8.25,6.04,14.8,13.99,14.8,4.93,0,8.61-2.43,11.63-5.67l3.61,3.39c-3.83,4.34-8.39,7.36-15.53,7.36-11.19,0-19.51-9.06-19.51-19.73Z"/>
  <path class="st0" d="M233.71,240.24v-22.97h-5.3v-5.01h5.3v-11.49h5.67v11.49h12.07v5.01h-12.07v22.23c0,4.71,2.58,6.33,6.41,6.33,1.99,0,3.53-.37,5.52-1.33v4.86c-1.99,1.1-4.12,1.62-6.85,1.62-6.18,0-10.75-3.02-10.75-10.75Z"/>
  <path class="st0" d="M261.62,197.68h6.48v6.26h-6.48v-6.26ZM261.99,212.26h5.67v38.06h-5.67v-38.06Z"/>
  <path class="st0" d="M277.08,212.26h6.26l12.81,31.58,12.88-31.58h6.11l-16.57,38.36h-5.01l-16.49-38.36Z"/>
  <path class="st0" d="M319.34,239.28v-.15c0-7.95,6.63-12.29,16.27-12.29,4.93,0,8.25.66,11.71,1.62v-1.33c0-6.85-4.2-10.38-11.34-10.38-4.49,0-8.03,1.1-11.56,2.8l-1.69-4.64c4.2-1.99,8.25-3.17,13.84-3.17s9.5,1.4,12.29,4.2c2.58,2.58,3.9,6.33,3.9,11.12v23.27h-5.45v-5.74c-2.65,3.46-6.99,6.55-13.77,6.55s-14.21-3.98-14.21-11.85ZM347.39,236.33v-3.68c-2.87-.81-6.48-1.62-11.19-1.62-7.14,0-11.12,3.09-11.12,7.88v.15c0,4.79,4.49,7.58,9.57,7.58,7.07,0,12.74-4.27,12.74-10.31Z"/>
  <path class="st0" d="M364.84,212.26h5.67v9.94c2.8-6.33,8.32-10.82,15.53-10.6v6.11h-.44c-8.32,0-15.09,5.96-15.09,17.45v15.17h-5.67v-38.06Z"/>
  <path class="st0" d="M417.26,196.58h5.67v53.75h-5.67v-53.75Z"/>
  <path class="st0" d="M433.24,239.28v-.15c0-7.95,6.63-12.29,16.27-12.29,4.93,0,8.25.66,11.71,1.62v-1.33c0-6.85-4.2-10.38-11.34-10.38-4.49,0-8.03,1.1-11.56,2.8l-1.69-4.64c4.2-1.99,8.25-3.17,13.84-3.17s9.5,1.4,12.29,4.2c2.58,2.58,3.9,6.33,3.9,11.12v23.27h-5.45v-5.74c-2.65,3.46-6.99,6.55-13.77,6.55s-14.21-3.98-14.21-11.85ZM461.29,236.33v-3.68c-2.87-.81-6.48-1.62-11.19-1.62-7.14,0-11.12,3.09-11.12,7.88v.15c0,4.79,4.49,7.58,9.57,7.58,7.07,0,12.74-4.27,12.74-10.31Z"/>
  <path class="st0" d="M498.47,231.4v-.15c0-10.97,7.66-19.81,18.26-19.81,11.26,0,17.74,8.98,17.74,20.1,0,.81,0,1.18-.07,1.84h-30.19c.81,8.25,6.63,12.88,13.4,12.88,5.3,0,8.83-2.14,12-5.37l3.53,3.17c-3.83,4.34-8.39,7.14-15.68,7.14-10.38,0-19-8.02-19-19.8ZM528.73,229.19c-.59-6.85-4.49-12.96-12.15-12.96-6.7,0-11.56,5.6-12.37,12.96h24.52Z"/>
  <path class="st0" d="M557.01,227.13l11.34-14.87h6.33l-14.43,18.63,15.02,19.44h-6.55l-11.78-15.68-11.85,15.68h-6.33l14.87-19.36-14.28-18.7h6.48l11.19,14.87Z"/>
  <path class="st0" d="M584.47,212.26h5.67v7.66c3.17-4.49,7.51-8.47,14.58-8.47,9.13,0,18.18,7.22,18.18,19.73v.15c0,12.37-8.98,19.81-18.18,19.81-7.07,0-11.63-3.75-14.58-8.1v19.07h-5.67v-49.84ZM617.08,231.4v-.15c0-9.06-6.11-14.73-13.4-14.73s-13.77,6.04-13.77,14.65v.15c0,8.83,6.7,14.73,13.77,14.73s13.4-5.45,13.4-14.65Z"/>
  <path class="st0" d="M631,231.4v-.15c0-10.97,7.66-19.81,18.26-19.81,11.26,0,17.74,8.98,17.74,20.1,0,.81,0,1.18-.07,1.84h-30.19c.81,8.25,6.63,12.88,13.4,12.88,5.3,0,8.83-2.14,12-5.37l3.53,3.17c-3.83,4.34-8.39,7.14-15.68,7.14-10.38,0-19-8.02-19-19.8ZM661.26,229.19c-.59-6.85-4.49-12.96-12.15-12.96-6.7,0-11.56,5.6-12.37,12.96h24.52Z"/>
  <path class="st0" d="M676.94,212.26h5.67v9.94c2.8-6.33,8.32-10.82,15.53-10.6v6.11h-.44c-8.32,0-15.09,5.96-15.09,17.45v15.17h-5.67v-38.06Z"/>
  <path class="st0" d="M706.91,197.68h6.48v6.26h-6.48v-6.26ZM707.28,212.26h5.67v38.06h-5.67v-38.06Z"/>
  <path class="st0" d="M723.77,231.4v-.15c0-10.97,7.66-19.81,18.26-19.81,11.26,0,17.74,8.98,17.74,20.1,0,.81,0,1.18-.07,1.84h-30.19c.81,8.25,6.63,12.88,13.4,12.88,5.3,0,8.83-2.14,12-5.37l3.53,3.17c-3.83,4.34-8.39,7.14-15.68,7.14-10.38,0-19-8.02-19-19.8ZM754.03,229.19c-.59-6.85-4.49-12.96-12.15-12.96-6.7,0-11.56,5.6-12.37,12.96h24.52Z"/>
  <path class="st0" d="M769.71,212.26h5.67v6.63c2.58-4.12,6.48-7.44,13.03-7.44,9.13,0,14.58,6.18,14.58,15.24v23.63h-5.67v-22.23c0-7.07-3.75-11.49-10.53-11.49s-11.41,4.79-11.41,11.93v21.79h-5.67v-38.06Z"/>
  <path class="st0" d="M812.71,231.47v-.15c0-10.82,8.32-19.88,19.51-19.88,7.21,0,11.63,2.95,15.24,6.77l-3.75,3.98c-3.02-3.17-6.33-5.74-11.56-5.74-7.73,0-13.62,6.48-13.62,14.72v.15c0,8.25,6.04,14.8,13.99,14.8,4.93,0,8.61-2.43,11.63-5.67l3.61,3.39c-3.83,4.34-8.39,7.36-15.53,7.36-11.19,0-19.51-9.06-19.51-19.73Z"/>
  <path class="st0" d="M857.26,197.68h6.48v6.26h-6.48v-6.26ZM857.62,212.26h5.67v38.06h-5.67v-38.06Z"/>
  <path class="st0" d="M873.6,239.28v-.15c0-7.95,6.63-12.29,16.27-12.29,4.93,0,8.25.66,11.71,1.62v-1.33c0-6.85-4.2-10.38-11.34-10.38-4.49,0-8.03,1.1-11.56,2.8l-1.69-4.64c4.2-1.99,8.25-3.17,13.84-3.17s9.5,1.4,12.29,4.2c2.58,2.58,3.9,6.33,3.9,11.12v23.27h-5.45v-5.74c-2.65,3.46-6.99,6.55-13.77,6.55s-14.21-3.98-14.21-11.85ZM901.65,236.33v-3.68c-2.87-.81-6.48-1.62-11.19-1.62-7.14,0-11.12,3.09-11.12,7.88v.15c0,4.79,4.49,7.58,9.57,7.58,7.07,0,12.74-4.27,12.74-10.31Z"/>
</svg>